<svg width="320" height="150" viewBox="0 0 320 150" fill="none" xmlns="http://www.w3.org/2000/svg">
<g clip-path="url(#clip0_223_2379)">
<path d="M0.666504 12C0.666504 5.37258 6.03909 0 12.6665 0H308C314.627 0 320 5.37258 320 12V138C320 144.627 314.627 150 308 150H12.6665C6.0391 150 0.666504 144.627 0.666504 138V12Z" fill="#FE8159"/>
<g clip-path="url(#clip1_223_2379)">
<mask id="mask0_223_2379" style="mask-type:luminance" maskUnits="userSpaceOnUse" x="200" y="0" width="150" height="150">
<path d="M200 0V150H350V0H200Z" fill="white"/>
</mask>
<g mask="url(#mask0_223_2379)">
<path fill-rule="evenodd" clip-rule="evenodd" d="M232.442 130.99L232.442 150H242.558V130.99C242.558 123.572 248.572 117.558 255.99 117.558H256.027H275H293.972H294.01C301.428 117.558 307.442 123.572 307.442 130.99V150H317.558V130.99C317.558 123.572 323.572 117.558 330.991 117.558H331.026H350V107.442H331.026H330.991C323.572 107.442 317.558 101.429 317.558 94.0103V75V55.9901C317.558 48.5718 323.572 42.5582 330.991 42.5582L331.026 42.5582H350V32.4418H331.026H330.991C323.572 32.4418 317.558 26.4281 317.558 19.01V0L307.442 4.42207e-07V19.01C307.442 26.4281 301.428 32.4419 294.01 32.4419L293.973 32.4418H275H256.027L255.99 32.4419C248.572 32.4419 242.558 26.4282 242.558 19.01V3.27835e-06L232.442 3.72056e-06V19.01C232.442 26.4282 226.428 32.4419 219.01 32.4419L218.973 32.4418H200L200 42.5582H218.972L219.01 42.5582C226.428 42.5582 232.442 48.5718 232.442 55.9901L232.442 75V94.0103C232.442 101.429 226.428 107.442 219.01 107.442H218.973H200L200 117.558H218.972H219.01C226.428 117.558 232.442 123.572 232.442 130.99ZM307.442 75V55.9901C307.442 48.5718 301.428 42.5582 294.01 42.5582L293.972 42.5582H275H256.027L255.99 42.5582C248.572 42.5582 242.558 48.5718 242.558 55.9901V75V94.0103C242.558 101.429 248.572 107.442 255.99 107.442H256.027H275H293.973H294.01C301.428 107.442 307.442 101.429 307.442 94.0103V75Z" fill="#FA9A82"/>
</g>
</g>
</g>
<defs>
<clipPath id="clip0_223_2379">
<path d="M0.666504 12C0.666504 5.37258 6.03909 0 12.6665 0H308C314.627 0 320 5.37258 320 12V138C320 144.627 314.627 150 308 150H12.6665C6.0391 150 0.666504 144.627 0.666504 138V12Z" fill="white"/>
</clipPath>
<clipPath id="clip1_223_2379">
<rect width="150" height="150" fill="white" transform="translate(200)"/>
</clipPath>
</defs>
</svg>
