<svg width="320" height="150" viewBox="0 0 320 150" fill="none" xmlns="http://www.w3.org/2000/svg">
<g clip-path="url(#clip0_223_2361)">
<path d="M0 12C0 5.37258 5.37258 0 12 0H307.333C313.961 0 319.333 5.37258 319.333 12V138C319.333 144.627 313.961 150 307.333 150H12C5.3726 150 0 144.627 0 138V12Z" fill="#D3A0FA"/>
<g clip-path="url(#clip1_223_2361)">
<mask id="mask0_223_2361" style="mask-type:luminance" maskUnits="userSpaceOnUse" x="199" y="0" width="151" height="150">
<path d="M349.5 150L349.5 0L199.5 -6.55671e-06L199.5 150L349.5 150Z" fill="white"/>
</mask>
<g mask="url(#mask0_223_2361)">
<path fill-rule="evenodd" clip-rule="evenodd" d="M312.75 -1.60639e-06L312.75 20.625L312.75 21L312.754 21C312.954 29.7324 320.095 36.75 328.875 36.75L349.5 36.75L349.5 41.25L328.5 41.25C319.801 41.25 312.75 48.3015 312.75 57C312.75 65.6985 319.801 72.75 328.5 72.75L349.5 72.75L349.5 77.25L328.5 77.25C319.801 77.25 312.75 84.3015 312.75 93C312.75 101.698 319.801 108.75 328.5 108.75L349.5 108.75L349.5 114L328.5 114C319.801 114 312.75 121.051 312.75 129.75L312.75 150L308.25 150L308.25 129C308.25 120.301 301.198 113.25 292.5 113.25C283.801 113.25 276.75 120.301 276.75 129L276.75 150L272.25 150L272.25 129C272.25 120.301 265.198 113.25 256.5 113.25C247.801 113.25 240.75 120.301 240.75 129L240.75 150L236.25 150L236.25 129.75C236.25 121.051 229.198 114 220.5 114L219.75 114L199.5 114L199.5 108.75L220.5 108.75C229.198 108.75 236.25 101.698 236.25 93C236.25 84.3015 229.198 77.25 220.5 77.25L199.5 77.25L199.5 72.75L220.5 72.75C229.198 72.75 236.25 65.6985 236.25 57C236.25 48.3015 229.198 41.25 220.5 41.25L199.5 41.25L199.5 36.75L220.125 36.75C228.905 36.75 236.047 29.7324 236.245 21L236.25 21L236.25 20.625L236.25 -4.95031e-06L240.75 -4.75361e-06L240.75 21C240.75 29.6985 247.801 36.75 256.5 36.75C265.198 36.75 272.25 29.6985 272.25 21L272.25 -3.3767e-06L276.75 -3.18e-06L276.75 21C276.75 29.6985 283.801 36.75 292.5 36.75C301.198 36.75 308.25 29.6985 308.25 21L308.25 -1.80309e-06L312.75 -1.60639e-06ZM276.75 57C276.75 65.6985 283.801 72.75 292.5 72.75C301.198 72.75 308.25 65.6985 308.25 57C308.25 48.3015 301.198 41.25 292.5 41.25C283.801 41.25 276.75 48.3015 276.75 57ZM276.75 93C276.75 101.698 283.801 108.75 292.5 108.75C301.198 108.75 308.25 101.698 308.25 93C308.25 84.3015 301.198 77.25 292.5 77.25C283.801 77.25 276.75 84.3015 276.75 93ZM256.5 72.75C247.801 72.75 240.75 65.6985 240.75 57C240.75 48.3015 247.801 41.25 256.5 41.25C265.198 41.25 272.25 48.3015 272.25 57C272.25 65.6985 265.198 72.75 256.5 72.75ZM240.75 93C240.75 101.698 247.801 108.75 256.5 108.75C265.198 108.75 272.25 101.698 272.25 93C272.25 84.3015 265.198 77.25 256.5 77.25C247.801 77.25 240.75 84.3015 240.75 93Z" fill="#DEBAFC"/>
</g>
</g>
</g>
<defs>
<clipPath id="clip0_223_2361">
<path d="M0 12C0 5.37258 5.37258 0 12 0H307.333C313.961 0 319.333 5.37258 319.333 12V138C319.333 144.627 313.961 150 307.333 150H12C5.3726 150 0 144.627 0 138V12Z" fill="white"/>
</clipPath>
<clipPath id="clip1_223_2361">
<rect width="150" height="150" fill="white" transform="translate(349.5) rotate(90)"/>
</clipPath>
</defs>
</svg>
