<svg width="320" height="150" viewBox="0 0 320 150" fill="none" xmlns="http://www.w3.org/2000/svg">
<g clip-path="url(#clip0_223_2370)">
<path d="M0.333252 12C0.333252 5.37258 5.70584 0 12.3333 0H307.667C314.294 0 319.667 5.37258 319.667 12V138C319.667 144.627 314.294 150 307.667 150H12.3333C5.70585 150 0.333252 144.627 0.333252 138V12Z" fill="#FF9F00"/>
<g clip-path="url(#clip1_223_2370)">
<mask id="mask0_223_2370" style="mask-type:luminance" maskUnits="userSpaceOnUse" x="199" y="0" width="151" height="150">
<path d="M350 0H200V150H350V0Z" fill="white"/>
</mask>
<g mask="url(#mask0_223_2370)">
<path fill-rule="evenodd" clip-rule="evenodd" d="M200 0H250V50H200V0ZM299.999 50H250V99.9997H200V150H250V99.9997H299.999V150H350V99.9997H299.999V50ZM299.999 50H350V0H299.999V50Z" fill="#FFB844"/>
</g>
</g>
</g>
<defs>
<clipPath id="clip0_223_2370">
<path d="M0.333252 12C0.333252 5.37258 5.70584 0 12.3333 0H307.667C314.294 0 319.667 5.37258 319.667 12V138C319.667 144.627 314.294 150 307.667 150H12.3333C5.70585 150 0.333252 144.627 0.333252 138V12Z" fill="white"/>
</clipPath>
<clipPath id="clip1_223_2370">
<rect width="150" height="150" fill="white" transform="translate(200)"/>
</clipPath>
</defs>
</svg>
